<?xml version="1.0" encoding="UTF-8" standalone="no"?>
<!DOCTYPE svg PUBLIC "-//W3C//DTD SVG 1.1//EN"
 "http://www.w3.org/Graphics/SVG/1.1/DTD/svg11.dtd">
<!-- Generated by graphviz version 2.43.0 (0)
 -->
<!-- Title: %3 Pages: 1 -->
<svg width="3041pt" height="620pt"
 viewBox="0.00 0.00 3040.50 620.00" xmlns="http://www.w3.org/2000/svg" xmlns:xlink="http://www.w3.org/1999/xlink">
<g id="graph0" class="graph" transform="scale(1 1) rotate(0) translate(4 616)">
<title>%3</title>
<polygon fill="white" stroke="transparent" points="-4,4 -4,-616 3036.5,-616 3036.5,4 -4,4"/>
<!-- [root] aws_eip.nextcloud01_eip (expand) -->
<g id="node1" class="node">
<title>[root] aws_eip.nextcloud01_eip (expand)</title>
<polygon fill="none" stroke="black" points="2010.5,-396 1816.5,-396 1816.5,-360 2010.5,-360 2010.5,-396"/>
<text text-anchor="middle" x="1913.5" y="-374.3" font-family="Times,serif" font-size="14.00">aws_eip.nextcloud01_eip</text>
</g>
<!-- [root] aws_instance.nextcloud01 (expand) -->
<g id="node8" class="node">
<title>[root] aws_instance.nextcloud01 (expand)</title>
<polygon fill="none" stroke="black" points="2025,-324 1822,-324 1822,-288 2025,-288 2025,-324"/>
<text text-anchor="middle" x="1923.5" y="-302.3" font-family="Times,serif" font-size="14.00">aws_instance.nextcloud01</text>
</g>
<!-- [root] aws_eip.nextcloud01_eip (expand)&#45;&gt;[root] aws_instance.nextcloud01 (expand) -->
<g id="edge1" class="edge">
<title>[root] aws_eip.nextcloud01_eip (expand)&#45;&gt;[root] aws_instance.nextcloud01 (expand)</title>
<path fill="none" stroke="black" d="M1915.97,-359.7C1917.07,-351.98 1918.4,-342.71 1919.63,-334.11"/>
<polygon fill="black" stroke="black" points="1923.11,-334.5 1921.06,-324.1 1916.18,-333.51 1923.11,-334.5"/>
</g>
<!-- [root] aws_iam_access_key.nextcloud&#45;s3&#45;user (expand) -->
<g id="node2" class="node">
<title>[root] aws_iam_access_key.nextcloud&#45;s3&#45;user (expand)</title>
<polygon fill="none" stroke="black" points="291,-396 0,-396 0,-360 291,-360 291,-396"/>
<text text-anchor="middle" x="145.5" y="-374.3" font-family="Times,serif" font-size="14.00">aws_iam_access_key.nextcloud&#45;s3&#45;user</text>
</g>
<!-- [root] aws_iam_user.nextcloud&#45;s3&#45;user (expand) -->
<g id="node5" class="node">
<title>[root] aws_iam_user.nextcloud&#45;s3&#45;user (expand)</title>
<polygon fill="none" stroke="black" points="579,-252 334,-252 334,-216 579,-216 579,-252"/>
<text text-anchor="middle" x="456.5" y="-230.3" font-family="Times,serif" font-size="14.00">aws_iam_user.nextcloud&#45;s3&#45;user</text>
</g>
<!-- [root] aws_iam_access_key.nextcloud&#45;s3&#45;user (expand)&#45;&gt;[root] aws_iam_user.nextcloud&#45;s3&#45;user (expand) -->
<g id="edge2" class="edge">
<title>[root] aws_iam_access_key.nextcloud&#45;s3&#45;user (expand)&#45;&gt;[root] aws_iam_user.nextcloud&#45;s3&#45;user (expand)</title>
<path fill="none" stroke="black" d="M183.01,-359.87C239.87,-333.91 347.78,-284.64 409.69,-256.37"/>
<polygon fill="black" stroke="black" points="411.21,-259.53 418.85,-252.19 408.3,-253.16 411.21,-259.53"/>
</g>
<!-- [root] aws_iam_policy.kms_policy (expand) -->
<g id="node3" class="node">
<title>[root] aws_iam_policy.kms_policy (expand)</title>
<polygon fill="none" stroke="black" points="884.5,-180 678.5,-180 678.5,-144 884.5,-144 884.5,-180"/>
<text text-anchor="middle" x="781.5" y="-158.3" font-family="Times,serif" font-size="14.00">aws_iam_policy.kms_policy</text>
</g>
<!-- [root] provider[&quot;registry.terraform.io/hashicorp/aws&quot;] -->
<g id="node24" class="node">
<title>[root] provider[&quot;registry.terraform.io/hashicorp/aws&quot;]</title>
<polygon fill="none" stroke="black" points="1101.5,-108 776.24,-90 1101.5,-72 1426.76,-90 1101.5,-108"/>
<text text-anchor="middle" x="1101.5" y="-86.3" font-family="Times,serif" font-size="14.00">provider[&quot;registry.terraform.io/hashicorp/aws&quot;]</text>
</g>
<!-- [root] aws_iam_policy.kms_policy (expand)&#45;&gt;[root] provider[&quot;registry.terraform.io/hashicorp/aws&quot;] -->
<g id="edge3" class="edge">
<title>[root] aws_iam_policy.kms_policy (expand)&#45;&gt;[root] provider[&quot;registry.terraform.io/hashicorp/aws&quot;]</title>
<path fill="none" stroke="black" d="M859.37,-143.97C911.23,-132.62 978.88,-117.82 1029.49,-106.75"/>
<polygon fill="black" stroke="black" points="1030.35,-110.15 1039.37,-104.59 1028.85,-103.31 1030.35,-110.15"/>
</g>
<!-- [root] aws_iam_policy.nextcloud_s3_policy (expand) -->
<g id="node4" class="node">
<title>[root] aws_iam_policy.nextcloud_s3_policy (expand)</title>
<polygon fill="none" stroke="black" points="754.5,-324 484.5,-324 484.5,-288 754.5,-288 754.5,-324"/>
<text text-anchor="middle" x="619.5" y="-302.3" font-family="Times,serif" font-size="14.00">aws_iam_policy.nextcloud_s3_policy</text>
</g>
<!-- [root] aws_iam_policy.nextcloud_s3_policy (expand)&#45;&gt;[root] provider[&quot;registry.terraform.io/hashicorp/aws&quot;] -->
<g id="edge4" class="edge">
<title>[root] aws_iam_policy.nextcloud_s3_policy (expand)&#45;&gt;[root] provider[&quot;registry.terraform.io/hashicorp/aws&quot;]</title>
<path fill="none" stroke="black" d="M619.21,-287.91C619.65,-254.47 625.81,-180.49 669.5,-144 701.85,-116.98 788.07,-103.44 875.04,-96.77"/>
<polygon fill="black" stroke="black" points="875.38,-100.25 885.1,-96.03 874.87,-93.27 875.38,-100.25"/>
</g>
<!-- [root] var.aws_bucket_name -->
<g id="node28" class="node">
<title>[root] var.aws_bucket_name</title>
<polygon fill="none" stroke="black" points="1141,-252 976,-252 976,-216 1147,-216 1147,-246 1141,-252"/>
<polyline fill="none" stroke="black" points="1141,-252 1141,-246 "/>
<polyline fill="none" stroke="black" points="1147,-246 1141,-246 "/>
<text text-anchor="middle" x="1061.5" y="-230.3" font-family="Times,serif" font-size="14.00">var.aws_bucket_name</text>
</g>
<!-- [root] aws_iam_policy.nextcloud_s3_policy (expand)&#45;&gt;[root] var.aws_bucket_name -->
<g id="edge5" class="edge">
<title>[root] aws_iam_policy.nextcloud_s3_policy (expand)&#45;&gt;[root] var.aws_bucket_name</title>
<path fill="none" stroke="black" d="M727.06,-287.97C799.88,-276.43 895.25,-261.33 965.51,-250.2"/>
<polygon fill="black" stroke="black" points="966.36,-253.61 975.69,-248.59 965.26,-246.7 966.36,-253.61"/>
</g>
<!-- [root] aws_iam_user.nextcloud&#45;s3&#45;user (expand)&#45;&gt;[root] provider[&quot;registry.terraform.io/hashicorp/aws&quot;] -->
<g id="edge6" class="edge">
<title>[root] aws_iam_user.nextcloud&#45;s3&#45;user (expand)&#45;&gt;[root] provider[&quot;registry.terraform.io/hashicorp/aws&quot;]</title>
<path fill="none" stroke="black" d="M492.2,-215.96C513.34,-205.75 540.57,-192.39 564.5,-180 594.17,-164.64 598.64,-154.06 630.5,-144 712.24,-118.2 805.45,-104.62 887.25,-97.59"/>
<polygon fill="black" stroke="black" points="888.01,-101.04 897.69,-96.72 887.43,-94.06 888.01,-101.04"/>
</g>
<!-- [root] var.aws_iam_bucket_user -->
<g id="node29" class="node">
<title>[root] var.aws_iam_bucket_user</title>
<polygon fill="none" stroke="black" points="549,-180 358,-180 358,-144 555,-144 555,-174 549,-180"/>
<polyline fill="none" stroke="black" points="549,-180 549,-174 "/>
<polyline fill="none" stroke="black" points="555,-174 549,-174 "/>
<text text-anchor="middle" x="456.5" y="-158.3" font-family="Times,serif" font-size="14.00">var.aws_iam_bucket_user</text>
</g>
<!-- [root] aws_iam_user.nextcloud&#45;s3&#45;user (expand)&#45;&gt;[root] var.aws_iam_bucket_user -->
<g id="edge7" class="edge">
<title>[root] aws_iam_user.nextcloud&#45;s3&#45;user (expand)&#45;&gt;[root] var.aws_iam_bucket_user</title>
<path fill="none" stroke="black" d="M456.5,-215.7C456.5,-207.98 456.5,-198.71 456.5,-190.11"/>
<polygon fill="black" stroke="black" points="460,-190.1 456.5,-180.1 453,-190.1 460,-190.1"/>
</g>
<!-- [root] aws_iam_user_policy_attachment.kms_policy_attach (expand) -->
<g id="node6" class="node">
<title>[root] aws_iam_user_policy_attachment.kms_policy_attach (expand)</title>
<polygon fill="none" stroke="black" points="1088,-396 701,-396 701,-360 1088,-360 1088,-396"/>
<text text-anchor="middle" x="894.5" y="-374.3" font-family="Times,serif" font-size="14.00">aws_iam_user_policy_attachment.kms_policy_attach</text>
</g>
<!-- [root] aws_iam_user_policy_attachment.kms_policy_attach (expand)&#45;&gt;[root] aws_iam_policy.kms_policy (expand) -->
<g id="edge8" class="edge">
<title>[root] aws_iam_user_policy_attachment.kms_policy_attach (expand)&#45;&gt;[root] aws_iam_policy.kms_policy (expand)</title>
<path fill="none" stroke="black" d="M845.93,-359.9C829.25,-351.61 812.12,-339.92 801.5,-324 774.56,-283.61 774.83,-224.63 777.88,-190.4"/>
<polygon fill="black" stroke="black" points="781.39,-190.52 778.94,-180.21 774.43,-189.8 781.39,-190.52"/>
</g>
<!-- [root] aws_iam_user_policy_attachment.kms_policy_attach (expand)&#45;&gt;[root] aws_iam_user.nextcloud&#45;s3&#45;user (expand) -->
<g id="edge9" class="edge">
<title>[root] aws_iam_user_policy_attachment.kms_policy_attach (expand)&#45;&gt;[root] aws_iam_user.nextcloud&#45;s3&#45;user (expand)</title>
<path fill="none" stroke="black" d="M724.05,-359.97C612.28,-348.07 485.06,-332.78 475.5,-324 458.74,-308.6 454.82,-282.33 454.61,-262.32"/>
<polygon fill="black" stroke="black" points="458.11,-262.29 454.8,-252.23 451.11,-262.16 458.11,-262.29"/>
</g>
<!-- [root] aws_iam_user_policy_attachment.s3_policy_attach (expand) -->
<g id="node7" class="node">
<title>[root] aws_iam_user_policy_attachment.s3_policy_attach (expand)</title>
<polygon fill="none" stroke="black" points="682.5,-396 308.5,-396 308.5,-360 682.5,-360 682.5,-396"/>
<text text-anchor="middle" x="495.5" y="-374.3" font-family="Times,serif" font-size="14.00">aws_iam_user_policy_attachment.s3_policy_attach</text>
</g>
<!-- [root] aws_iam_user_policy_attachment.s3_policy_attach (expand)&#45;&gt;[root] aws_iam_policy.nextcloud_s3_policy (expand) -->
<g id="edge10" class="edge">
<title>[root] aws_iam_user_policy_attachment.s3_policy_attach (expand)&#45;&gt;[root] aws_iam_policy.nextcloud_s3_policy (expand)</title>
<path fill="none" stroke="black" d="M525.83,-359.88C542.2,-350.64 562.58,-339.13 580.15,-329.21"/>
<polygon fill="black" stroke="black" points="582.06,-332.15 589.05,-324.19 578.62,-326.06 582.06,-332.15"/>
</g>
<!-- [root] aws_iam_user_policy_attachment.s3_policy_attach (expand)&#45;&gt;[root] aws_iam_user.nextcloud&#45;s3&#45;user (expand) -->
<g id="edge11" class="edge">
<title>[root] aws_iam_user_policy_attachment.s3_policy_attach (expand)&#45;&gt;[root] aws_iam_user.nextcloud&#45;s3&#45;user (expand)</title>
<path fill="none" stroke="black" d="M471.02,-359.77C460.1,-350.56 448.38,-338.19 442.5,-324 434.22,-304 438.98,-279.62 445.1,-261.44"/>
<polygon fill="black" stroke="black" points="448.39,-262.63 448.57,-252.04 441.83,-260.21 448.39,-262.63"/>
</g>
<!-- [root] aws_key_pair.nextcloud_ssh_key (expand) -->
<g id="node10" class="node">
<title>[root] aws_key_pair.nextcloud_ssh_key (expand)</title>
<polygon fill="none" stroke="black" points="1488.5,-252 1242.5,-252 1242.5,-216 1488.5,-216 1488.5,-252"/>
<text text-anchor="middle" x="1365.5" y="-230.3" font-family="Times,serif" font-size="14.00">aws_key_pair.nextcloud_ssh_key</text>
</g>
<!-- [root] aws_instance.nextcloud01 (expand)&#45;&gt;[root] aws_key_pair.nextcloud_ssh_key (expand) -->
<g id="edge12" class="edge">
<title>[root] aws_instance.nextcloud01 (expand)&#45;&gt;[root] aws_key_pair.nextcloud_ssh_key (expand)</title>
<path fill="none" stroke="black" d="M1821.92,-292.49C1738.05,-282.13 1615.58,-266.93 1498.99,-252.19"/>
<polygon fill="black" stroke="black" points="1499.17,-248.68 1488.81,-250.9 1498.29,-255.63 1499.17,-248.68"/>
</g>
<!-- [root] aws_security_group.nextcloud_sg (expand) -->
<g id="node16" class="node">
<title>[root] aws_security_group.nextcloud_sg (expand)</title>
<polygon fill="none" stroke="black" points="2742,-252 2487,-252 2487,-216 2742,-216 2742,-252"/>
<text text-anchor="middle" x="2614.5" y="-230.3" font-family="Times,serif" font-size="14.00">aws_security_group.nextcloud_sg</text>
</g>
<!-- [root] aws_instance.nextcloud01 (expand)&#45;&gt;[root] aws_security_group.nextcloud_sg (expand) -->
<g id="edge13" class="edge">
<title>[root] aws_instance.nextcloud01 (expand)&#45;&gt;[root] aws_security_group.nextcloud_sg (expand)</title>
<path fill="none" stroke="black" d="M2025.19,-296.13C2134.09,-286.44 2312.26,-270.02 2476.59,-252.08"/>
<polygon fill="black" stroke="black" points="2477.34,-255.52 2486.9,-250.95 2476.57,-248.56 2477.34,-255.52"/>
</g>
<!-- [root] aws_subnet.aws_net (expand) -->
<g id="node17" class="node">
<title>[root] aws_subnet.aws_net (expand)</title>
<polygon fill="none" stroke="black" points="2468.5,-252 2306.5,-252 2306.5,-216 2468.5,-216 2468.5,-252"/>
<text text-anchor="middle" x="2387.5" y="-230.3" font-family="Times,serif" font-size="14.00">aws_subnet.aws_net</text>
</g>
<!-- [root] aws_instance.nextcloud01 (expand)&#45;&gt;[root] aws_subnet.aws_net (expand) -->
<g id="edge14" class="edge">
<title>[root] aws_instance.nextcloud01 (expand)&#45;&gt;[root] aws_subnet.aws_net (expand)</title>
<path fill="none" stroke="black" d="M2025.28,-291.86C2098.1,-282.16 2198.68,-268.15 2296.07,-252.2"/>
<polygon fill="black" stroke="black" points="2296.8,-255.63 2306.09,-250.55 2295.66,-248.72 2296.8,-255.63"/>
</g>
<!-- [root] var.aws_ami -->
<g id="node26" class="node">
<title>[root] var.aws_ami</title>
<polygon fill="none" stroke="black" points="2056.5,-252 1958.5,-252 1958.5,-216 2062.5,-216 2062.5,-246 2056.5,-252"/>
<polyline fill="none" stroke="black" points="2056.5,-252 2056.5,-246 "/>
<polyline fill="none" stroke="black" points="2062.5,-246 2056.5,-246 "/>
<text text-anchor="middle" x="2010.5" y="-230.3" font-family="Times,serif" font-size="14.00">var.aws_ami</text>
</g>
<!-- [root] aws_instance.nextcloud01 (expand)&#45;&gt;[root] var.aws_ami -->
<g id="edge15" class="edge">
<title>[root] aws_instance.nextcloud01 (expand)&#45;&gt;[root] var.aws_ami</title>
<path fill="none" stroke="black" d="M1945.01,-287.7C1955.96,-278.88 1969.45,-268.03 1981.32,-258.47"/>
<polygon fill="black" stroke="black" points="1983.64,-261.1 1989.24,-252.1 1979.26,-255.65 1983.64,-261.1"/>
</g>
<!-- [root] var.aws_instance_disk_size -->
<g id="node30" class="node">
<title>[root] var.aws_instance_disk_size</title>
<polygon fill="none" stroke="black" points="2282.5,-252 2080.5,-252 2080.5,-216 2288.5,-216 2288.5,-246 2282.5,-252"/>
<polyline fill="none" stroke="black" points="2282.5,-252 2282.5,-246 "/>
<polyline fill="none" stroke="black" points="2288.5,-246 2282.5,-246 "/>
<text text-anchor="middle" x="2184.5" y="-230.3" font-family="Times,serif" font-size="14.00">var.aws_instance_disk_size</text>
</g>
<!-- [root] aws_instance.nextcloud01 (expand)&#45;&gt;[root] var.aws_instance_disk_size -->
<g id="edge16" class="edge">
<title>[root] aws_instance.nextcloud01 (expand)&#45;&gt;[root] var.aws_instance_disk_size</title>
<path fill="none" stroke="black" d="M1987.01,-287.97C2024.43,-277.93 2071.93,-265.19 2110.97,-254.72"/>
<polygon fill="black" stroke="black" points="2111.95,-258.08 2120.7,-252.11 2110.14,-251.32 2111.95,-258.08"/>
</g>
<!-- [root] var.aws_instance_size -->
<g id="node31" class="node">
<title>[root] var.aws_instance_size</title>
<polygon fill="none" stroke="black" points="1672.5,-252 1506.5,-252 1506.5,-216 1678.5,-216 1678.5,-246 1672.5,-252"/>
<polyline fill="none" stroke="black" points="1672.5,-252 1672.5,-246 "/>
<polyline fill="none" stroke="black" points="1678.5,-246 1672.5,-246 "/>
<text text-anchor="middle" x="1592.5" y="-230.3" font-family="Times,serif" font-size="14.00">var.aws_instance_size</text>
</g>
<!-- [root] aws_instance.nextcloud01 (expand)&#45;&gt;[root] var.aws_instance_size -->
<g id="edge17" class="edge">
<title>[root] aws_instance.nextcloud01 (expand)&#45;&gt;[root] var.aws_instance_size</title>
<path fill="none" stroke="black" d="M1842.95,-287.97C1794.6,-277.74 1732.98,-264.71 1682.96,-254.13"/>
<polygon fill="black" stroke="black" points="1683.63,-250.69 1673.12,-252.05 1682.18,-257.54 1683.63,-250.69"/>
</g>
<!-- [root] var.aws_nextcloud01_private_ip -->
<g id="node33" class="node">
<title>[root] var.aws_nextcloud01_private_ip</title>
<polygon fill="none" stroke="black" points="1934,-252 1697,-252 1697,-216 1940,-216 1940,-246 1934,-252"/>
<polyline fill="none" stroke="black" points="1934,-252 1934,-246 "/>
<polyline fill="none" stroke="black" points="1940,-246 1934,-246 "/>
<text text-anchor="middle" x="1818.5" y="-230.3" font-family="Times,serif" font-size="14.00">var.aws_nextcloud01_private_ip</text>
</g>
<!-- [root] aws_instance.nextcloud01 (expand)&#45;&gt;[root] var.aws_nextcloud01_private_ip -->
<g id="edge18" class="edge">
<title>[root] aws_instance.nextcloud01 (expand)&#45;&gt;[root] var.aws_nextcloud01_private_ip</title>
<path fill="none" stroke="black" d="M1897.81,-287.88C1884.21,-278.81 1867.33,-267.55 1852.64,-257.76"/>
<polygon fill="black" stroke="black" points="1854.55,-254.82 1844.28,-252.19 1850.66,-260.65 1854.55,-254.82"/>
</g>
<!-- [root] aws_internet_gateway.aws_gateway (expand) -->
<g id="node9" class="node">
<title>[root] aws_internet_gateway.aws_gateway (expand)</title>
<polygon fill="none" stroke="black" points="3032.5,-252 2760.5,-252 2760.5,-216 3032.5,-216 3032.5,-252"/>
<text text-anchor="middle" x="2896.5" y="-230.3" font-family="Times,serif" font-size="14.00">aws_internet_gateway.aws_gateway</text>
</g>
<!-- [root] aws_vpc.aws_vpc (expand) -->
<g id="node18" class="node">
<title>[root] aws_vpc.aws_vpc (expand)</title>
<polygon fill="none" stroke="black" points="2661.5,-180 2521.5,-180 2521.5,-144 2661.5,-144 2661.5,-180"/>
<text text-anchor="middle" x="2591.5" y="-158.3" font-family="Times,serif" font-size="14.00">aws_vpc.aws_vpc</text>
</g>
<!-- [root] aws_internet_gateway.aws_gateway (expand)&#45;&gt;[root] aws_vpc.aws_vpc (expand) -->
<g id="edge19" class="edge">
<title>[root] aws_internet_gateway.aws_gateway (expand)&#45;&gt;[root] aws_vpc.aws_vpc (expand)</title>
<path fill="none" stroke="black" d="M2822.28,-215.97C2776.6,-205.48 2718.06,-192.05 2671.37,-181.33"/>
<polygon fill="black" stroke="black" points="2672.12,-177.91 2661.59,-179.09 2670.56,-184.74 2672.12,-177.91"/>
</g>
<!-- [root] aws_key_pair.nextcloud_ssh_key (expand)&#45;&gt;[root] provider[&quot;registry.terraform.io/hashicorp/aws&quot;] -->
<g id="edge20" class="edge">
<title>[root] aws_key_pair.nextcloud_ssh_key (expand)&#45;&gt;[root] provider[&quot;registry.terraform.io/hashicorp/aws&quot;]</title>
<path fill="none" stroke="black" d="M1332.41,-215.9C1314.27,-206.1 1291.65,-193.15 1272.5,-180 1251.67,-165.69 1250.16,-157 1228.5,-144 1205.45,-130.17 1178.14,-118.26 1154.75,-109.25"/>
<polygon fill="black" stroke="black" points="1155.93,-105.95 1145.33,-105.7 1153.45,-112.5 1155.93,-105.95"/>
</g>
<!-- [root] var.aws_ssh_public_key -->
<g id="node37" class="node">
<title>[root] var.aws_ssh_public_key</title>
<polygon fill="none" stroke="black" points="1458,-180 1281,-180 1281,-144 1464,-144 1464,-174 1458,-180"/>
<polyline fill="none" stroke="black" points="1458,-180 1458,-174 "/>
<polyline fill="none" stroke="black" points="1464,-174 1458,-174 "/>
<text text-anchor="middle" x="1372.5" y="-158.3" font-family="Times,serif" font-size="14.00">var.aws_ssh_public_key</text>
</g>
<!-- [root] aws_key_pair.nextcloud_ssh_key (expand)&#45;&gt;[root] var.aws_ssh_public_key -->
<g id="edge21" class="edge">
<title>[root] aws_key_pair.nextcloud_ssh_key (expand)&#45;&gt;[root] var.aws_ssh_public_key</title>
<path fill="none" stroke="black" d="M1367.23,-215.7C1368,-207.98 1368.93,-198.71 1369.79,-190.11"/>
<polygon fill="black" stroke="black" points="1373.28,-190.4 1370.79,-180.1 1366.31,-189.71 1373.28,-190.4"/>
</g>
<!-- [root] aws_kms_key.nextcloud_bucket_key (expand) -->
<g id="node11" class="node">
<title>[root] aws_kms_key.nextcloud_bucket_key (expand)</title>
<polygon fill="none" stroke="black" points="1080.5,-324 810.5,-324 810.5,-288 1080.5,-288 1080.5,-324"/>
<text text-anchor="middle" x="945.5" y="-302.3" font-family="Times,serif" font-size="14.00">aws_kms_key.nextcloud_bucket_key</text>
</g>
<!-- [root] aws_kms_key.nextcloud_bucket_key (expand)&#45;&gt;[root] aws_iam_user.nextcloud&#45;s3&#45;user (expand) -->
<g id="edge22" class="edge">
<title>[root] aws_kms_key.nextcloud_bucket_key (expand)&#45;&gt;[root] aws_iam_user.nextcloud&#45;s3&#45;user (expand)</title>
<path fill="none" stroke="black" d="M826.5,-287.97C753.59,-277.53 660.24,-264.17 585.55,-253.47"/>
<polygon fill="black" stroke="black" points="586,-250 575.61,-252.05 585.01,-256.93 586,-250"/>
</g>
<!-- [root] data.aws_caller_identity.current (expand) -->
<g id="node19" class="node">
<title>[root] data.aws_caller_identity.current (expand)</title>
<polygon fill="none" stroke="black" points="1148,-180 903,-180 903,-144 1148,-144 1148,-180"/>
<text text-anchor="middle" x="1025.5" y="-158.3" font-family="Times,serif" font-size="14.00">data.aws_caller_identity.current</text>
</g>
<!-- [root] aws_kms_key.nextcloud_bucket_key (expand)&#45;&gt;[root] data.aws_caller_identity.current (expand) -->
<g id="edge23" class="edge">
<title>[root] aws_kms_key.nextcloud_bucket_key (expand)&#45;&gt;[root] data.aws_caller_identity.current (expand)</title>
<path fill="none" stroke="black" d="M946.78,-287.81C948.82,-269.02 954.08,-238.57 967.5,-216 974.03,-205.01 983.56,-194.96 993.01,-186.64"/>
<polygon fill="black" stroke="black" points="995.44,-189.17 1000.87,-180.07 990.95,-183.8 995.44,-189.17"/>
</g>
<!-- [root] aws_route_table.public_routes (expand) -->
<g id="node12" class="node">
<title>[root] aws_route_table.public_routes (expand)</title>
<polygon fill="none" stroke="black" points="2820,-324 2587,-324 2587,-288 2820,-288 2820,-324"/>
<text text-anchor="middle" x="2703.5" y="-302.3" font-family="Times,serif" font-size="14.00">aws_route_table.public_routes</text>
</g>
<!-- [root] aws_route_table.public_routes (expand)&#45;&gt;[root] aws_internet_gateway.aws_gateway (expand) -->
<g id="edge24" class="edge">
<title>[root] aws_route_table.public_routes (expand)&#45;&gt;[root] aws_internet_gateway.aws_gateway (expand)</title>
<path fill="none" stroke="black" d="M2750.71,-287.88C2777.57,-278.14 2811.38,-265.87 2839.68,-255.61"/>
<polygon fill="black" stroke="black" points="2841.23,-258.77 2849.44,-252.07 2838.85,-252.19 2841.23,-258.77"/>
</g>
<!-- [root] aws_route_table_association.aws_net_routes (expand) -->
<g id="node13" class="node">
<title>[root] aws_route_table_association.aws_net_routes (expand)</title>
<polygon fill="none" stroke="black" points="2419,-396 2086,-396 2086,-360 2419,-360 2419,-396"/>
<text text-anchor="middle" x="2252.5" y="-374.3" font-family="Times,serif" font-size="14.00">aws_route_table_association.aws_net_routes</text>
</g>
<!-- [root] aws_route_table_association.aws_net_routes (expand)&#45;&gt;[root] aws_route_table.public_routes (expand) -->
<g id="edge25" class="edge">
<title>[root] aws_route_table_association.aws_net_routes (expand)&#45;&gt;[root] aws_route_table.public_routes (expand)</title>
<path fill="none" stroke="black" d="M2362.25,-359.97C2429.23,-349.57 2514.89,-336.27 2583.63,-325.6"/>
<polygon fill="black" stroke="black" points="2584.3,-329.04 2593.65,-324.05 2583.23,-322.13 2584.3,-329.04"/>
</g>
<!-- [root] aws_route_table_association.aws_net_routes (expand)&#45;&gt;[root] aws_subnet.aws_net (expand) -->
<g id="edge26" class="edge">
<title>[root] aws_route_table_association.aws_net_routes (expand)&#45;&gt;[root] aws_subnet.aws_net (expand)</title>
<path fill="none" stroke="black" d="M2268.78,-359.87C2292.5,-334.92 2336.69,-288.45 2363.95,-259.77"/>
<polygon fill="black" stroke="black" points="2366.8,-261.85 2371.16,-252.19 2361.73,-257.03 2366.8,-261.85"/>
</g>
<!-- [root] aws_s3_account_public_access_block.public_access_block (expand) -->
<g id="node14" class="node">
<title>[root] aws_s3_account_public_access_block.public_access_block (expand)</title>
<polygon fill="none" stroke="black" points="1798,-396 1375,-396 1375,-360 1798,-360 1798,-396"/>
<text text-anchor="middle" x="1586.5" y="-374.3" font-family="Times,serif" font-size="14.00">aws_s3_account_public_access_block.public_access_block</text>
</g>
<!-- [root] aws_s3_account_public_access_block.public_access_block (expand)&#45;&gt;[root] provider[&quot;registry.terraform.io/hashicorp/aws&quot;] -->
<g id="edge27" class="edge">
<title>[root] aws_s3_account_public_access_block.public_access_block (expand)&#45;&gt;[root] provider[&quot;registry.terraform.io/hashicorp/aws&quot;]</title>
<path fill="none" stroke="black" d="M1573.5,-359.96C1556.62,-339.19 1525.05,-304.78 1489.5,-288 1385.6,-238.95 1327.03,-318.73 1233.5,-252 1189.65,-220.71 1214,-184.51 1178.5,-144 1167.53,-131.48 1153,-120.49 1139.51,-111.81"/>
<polygon fill="black" stroke="black" points="1141.2,-108.73 1130.85,-106.45 1137.51,-114.69 1141.2,-108.73"/>
</g>
<!-- [root] aws_s3_bucket.nextcloud_bucket (expand) -->
<g id="node15" class="node">
<title>[root] aws_s3_bucket.nextcloud_bucket (expand)</title>
<polygon fill="none" stroke="black" points="1357,-396 1106,-396 1106,-360 1357,-360 1357,-396"/>
<text text-anchor="middle" x="1231.5" y="-374.3" font-family="Times,serif" font-size="14.00">aws_s3_bucket.nextcloud_bucket</text>
</g>
<!-- [root] aws_s3_bucket.nextcloud_bucket (expand)&#45;&gt;[root] aws_kms_key.nextcloud_bucket_key (expand) -->
<g id="edge28" class="edge">
<title>[root] aws_s3_bucket.nextcloud_bucket (expand)&#45;&gt;[root] aws_kms_key.nextcloud_bucket_key (expand)</title>
<path fill="none" stroke="black" d="M1161.9,-359.97C1120.64,-349.87 1068.19,-337.03 1025.26,-326.52"/>
<polygon fill="black" stroke="black" points="1025.96,-323.09 1015.41,-324.11 1024.29,-329.89 1025.96,-323.09"/>
</g>
<!-- [root] data.aws_canonical_user_id.nextcloud&#45;s3&#45;user (expand) -->
<g id="node20" class="node">
<title>[root] data.aws_canonical_user_id.nextcloud&#45;s3&#45;user (expand)</title>
<polygon fill="none" stroke="black" points="1480.5,-324 1136.5,-324 1136.5,-288 1480.5,-288 1480.5,-324"/>
<text text-anchor="middle" x="1308.5" y="-302.3" font-family="Times,serif" font-size="14.00">data.aws_canonical_user_id.nextcloud&#45;s3&#45;user</text>
</g>
<!-- [root] aws_s3_bucket.nextcloud_bucket (expand)&#45;&gt;[root] data.aws_canonical_user_id.nextcloud&#45;s3&#45;user (expand) -->
<g id="edge29" class="edge">
<title>[root] aws_s3_bucket.nextcloud_bucket (expand)&#45;&gt;[root] data.aws_canonical_user_id.nextcloud&#45;s3&#45;user (expand)</title>
<path fill="none" stroke="black" d="M1250.53,-359.7C1260.04,-351.05 1271.71,-340.45 1282.07,-331.03"/>
<polygon fill="black" stroke="black" points="1284.64,-333.42 1289.69,-324.1 1279.93,-328.24 1284.64,-333.42"/>
</g>
<!-- [root] aws_s3_bucket.nextcloud_bucket (expand)&#45;&gt;[root] var.aws_bucket_name -->
<g id="edge30" class="edge">
<title>[root] aws_s3_bucket.nextcloud_bucket (expand)&#45;&gt;[root] var.aws_bucket_name</title>
<path fill="none" stroke="black" d="M1187.28,-359.94C1167.69,-351.06 1145.14,-338.92 1127.5,-324 1106.32,-306.09 1088.07,-280.13 1076.16,-260.86"/>
<polygon fill="black" stroke="black" points="1079.14,-259.04 1070.99,-252.27 1073.15,-262.64 1079.14,-259.04"/>
</g>
<!-- [root] aws_security_group.nextcloud_sg (expand)&#45;&gt;[root] aws_vpc.aws_vpc (expand) -->
<g id="edge31" class="edge">
<title>[root] aws_security_group.nextcloud_sg (expand)&#45;&gt;[root] aws_vpc.aws_vpc (expand)</title>
<path fill="none" stroke="black" d="M2608.81,-215.7C2606.25,-207.9 2603.17,-198.51 2600.32,-189.83"/>
<polygon fill="black" stroke="black" points="2603.57,-188.51 2597.12,-180.1 2596.92,-190.7 2603.57,-188.51"/>
</g>
<!-- [root] aws_subnet.aws_net (expand)&#45;&gt;[root] aws_vpc.aws_vpc (expand) -->
<g id="edge32" class="edge">
<title>[root] aws_subnet.aws_net (expand)&#45;&gt;[root] aws_vpc.aws_vpc (expand)</title>
<path fill="none" stroke="black" d="M2437.14,-215.97C2465.77,-206.14 2501.95,-193.73 2532.08,-183.39"/>
<polygon fill="black" stroke="black" points="2533.31,-186.67 2541.63,-180.11 2531.04,-180.05 2533.31,-186.67"/>
</g>
<!-- [root] var.aws_az -->
<g id="node27" class="node">
<title>[root] var.aws_az</title>
<polygon fill="none" stroke="black" points="2451,-180 2364,-180 2364,-144 2457,-144 2457,-174 2451,-180"/>
<polyline fill="none" stroke="black" points="2451,-180 2451,-174 "/>
<polyline fill="none" stroke="black" points="2457,-174 2451,-174 "/>
<text text-anchor="middle" x="2410.5" y="-158.3" font-family="Times,serif" font-size="14.00">var.aws_az</text>
</g>
<!-- [root] aws_subnet.aws_net (expand)&#45;&gt;[root] var.aws_az -->
<g id="edge33" class="edge">
<title>[root] aws_subnet.aws_net (expand)&#45;&gt;[root] var.aws_az</title>
<path fill="none" stroke="black" d="M2393.19,-215.7C2395.75,-207.9 2398.83,-198.51 2401.68,-189.83"/>
<polygon fill="black" stroke="black" points="2405.08,-190.7 2404.88,-180.1 2398.43,-188.51 2405.08,-190.7"/>
</g>
<!-- [root] var.aws_net_cidr -->
<g id="node32" class="node">
<title>[root] var.aws_net_cidr</title>
<polygon fill="none" stroke="black" points="2340,-180 2211,-180 2211,-144 2346,-144 2346,-174 2340,-180"/>
<polyline fill="none" stroke="black" points="2340,-180 2340,-174 "/>
<polyline fill="none" stroke="black" points="2346,-174 2340,-174 "/>
<text text-anchor="middle" x="2278.5" y="-158.3" font-family="Times,serif" font-size="14.00">var.aws_net_cidr</text>
</g>
<!-- [root] aws_subnet.aws_net (expand)&#45;&gt;[root] var.aws_net_cidr -->
<g id="edge34" class="edge">
<title>[root] aws_subnet.aws_net (expand)&#45;&gt;[root] var.aws_net_cidr</title>
<path fill="none" stroke="black" d="M2360.84,-215.88C2346.72,-206.81 2329.19,-195.55 2313.94,-185.76"/>
<polygon fill="black" stroke="black" points="2315.57,-182.65 2305.27,-180.19 2311.79,-188.54 2315.57,-182.65"/>
</g>
<!-- [root] aws_vpc.aws_vpc (expand)&#45;&gt;[root] provider[&quot;registry.terraform.io/hashicorp/aws&quot;] -->
<g id="edge35" class="edge">
<title>[root] aws_vpc.aws_vpc (expand)&#45;&gt;[root] provider[&quot;registry.terraform.io/hashicorp/aws&quot;]</title>
<path fill="none" stroke="black" d="M2521.23,-150.23C2503.41,-147.84 2484.28,-145.55 2466.5,-144 2087.26,-110.93 1646.95,-98.49 1371.25,-93.82"/>
<polygon fill="black" stroke="black" points="1371.16,-90.31 1361.11,-93.65 1371.05,-97.31 1371.16,-90.31"/>
</g>
<!-- [root] var.aws_vpc_cidr -->
<g id="node38" class="node">
<title>[root] var.aws_vpc_cidr</title>
<polygon fill="none" stroke="black" points="2654,-108 2523,-108 2523,-72 2660,-72 2660,-102 2654,-108"/>
<polyline fill="none" stroke="black" points="2654,-108 2654,-102 "/>
<polyline fill="none" stroke="black" points="2660,-102 2654,-102 "/>
<text text-anchor="middle" x="2591.5" y="-86.3" font-family="Times,serif" font-size="14.00">var.aws_vpc_cidr</text>
</g>
<!-- [root] aws_vpc.aws_vpc (expand)&#45;&gt;[root] var.aws_vpc_cidr -->
<g id="edge36" class="edge">
<title>[root] aws_vpc.aws_vpc (expand)&#45;&gt;[root] var.aws_vpc_cidr</title>
<path fill="none" stroke="black" d="M2591.5,-143.7C2591.5,-135.98 2591.5,-126.71 2591.5,-118.11"/>
<polygon fill="black" stroke="black" points="2595,-118.1 2591.5,-108.1 2588,-118.1 2595,-118.1"/>
</g>
<!-- [root] data.aws_caller_identity.current (expand)&#45;&gt;[root] provider[&quot;registry.terraform.io/hashicorp/aws&quot;] -->
<g id="edge37" class="edge">
<title>[root] data.aws_caller_identity.current (expand)&#45;&gt;[root] provider[&quot;registry.terraform.io/hashicorp/aws&quot;]</title>
<path fill="none" stroke="black" d="M1044.29,-143.7C1053.95,-134.79 1065.87,-123.81 1076.33,-114.19"/>
<polygon fill="black" stroke="black" points="1078.99,-116.49 1083.97,-107.14 1074.24,-111.34 1078.99,-116.49"/>
</g>
<!-- [root] data.aws_canonical_user_id.nextcloud&#45;s3&#45;user (expand)&#45;&gt;[root] provider[&quot;registry.terraform.io/hashicorp/aws&quot;] -->
<g id="edge38" class="edge">
<title>[root] data.aws_canonical_user_id.nextcloud&#45;s3&#45;user (expand)&#45;&gt;[root] provider[&quot;registry.terraform.io/hashicorp/aws&quot;]</title>
<path fill="none" stroke="black" d="M1255.1,-287.99C1235.85,-279.68 1215.25,-267.94 1200.5,-252 1165.41,-214.08 1186.5,-186.76 1157.5,-144 1149.91,-132.81 1139.59,-122.2 1129.88,-113.45"/>
<polygon fill="black" stroke="black" points="1132.13,-110.77 1122.29,-106.86 1127.55,-116.06 1132.13,-110.77"/>
</g>
<!-- [root] output.nextcloud&#45;s3&#45;user_access_token -->
<g id="node21" class="node">
<title>[root] output.nextcloud&#45;s3&#45;user_access_token</title>
<polygon fill="none" stroke="black" points="608,-468 319,-468 319,-432 614,-432 614,-462 608,-468"/>
<polyline fill="none" stroke="black" points="608,-468 608,-462 "/>
<polyline fill="none" stroke="black" points="614,-462 608,-462 "/>
<text text-anchor="middle" x="466.5" y="-446.3" font-family="Times,serif" font-size="14.00">output.nextcloud&#45;s3&#45;user_access_token</text>
</g>
<!-- [root] output.nextcloud&#45;s3&#45;user_access_token&#45;&gt;[root] aws_iam_access_key.nextcloud&#45;s3&#45;user (expand) -->
<g id="edge48" class="edge">
<title>[root] output.nextcloud&#45;s3&#45;user_access_token&#45;&gt;[root] aws_iam_access_key.nextcloud&#45;s3&#45;user (expand)</title>
<path fill="none" stroke="black" d="M388.39,-431.97C341.59,-421.76 281.99,-408.76 233.53,-398.2"/>
<polygon fill="black" stroke="black" points="234.2,-394.76 223.69,-396.05 232.71,-401.6 234.2,-394.76"/>
</g>
<!-- [root] output.nextcloud&#45;s3&#45;user_secret -->
<g id="node22" class="node">
<title>[root] output.nextcloud&#45;s3&#45;user_secret</title>
<polygon fill="none" stroke="black" points="269.5,-468 29.5,-468 29.5,-432 275.5,-432 275.5,-462 269.5,-468"/>
<polyline fill="none" stroke="black" points="269.5,-468 269.5,-462 "/>
<polyline fill="none" stroke="black" points="275.5,-462 269.5,-462 "/>
<text text-anchor="middle" x="152.5" y="-446.3" font-family="Times,serif" font-size="14.00">output.nextcloud&#45;s3&#45;user_secret</text>
</g>
<!-- [root] output.nextcloud&#45;s3&#45;user_secret&#45;&gt;[root] aws_iam_access_key.nextcloud&#45;s3&#45;user (expand) -->
<g id="edge49" class="edge">
<title>[root] output.nextcloud&#45;s3&#45;user_secret&#45;&gt;[root] aws_iam_access_key.nextcloud&#45;s3&#45;user (expand)</title>
<path fill="none" stroke="black" d="M150.77,-431.7C150,-423.98 149.07,-414.71 148.21,-406.11"/>
<polygon fill="black" stroke="black" points="151.69,-405.71 147.21,-396.1 144.72,-406.4 151.69,-405.71"/>
</g>
<!-- [root] output.nextcloud01_eip -->
<g id="node23" class="node">
<title>[root] output.nextcloud01_eip</title>
<polygon fill="none" stroke="black" points="1896,-468 1717,-468 1717,-432 1902,-432 1902,-462 1896,-468"/>
<polyline fill="none" stroke="black" points="1896,-468 1896,-462 "/>
<polyline fill="none" stroke="black" points="1902,-462 1896,-462 "/>
<text text-anchor="middle" x="1809.5" y="-446.3" font-family="Times,serif" font-size="14.00">output.nextcloud01_eip</text>
</g>
<!-- [root] output.nextcloud01_eip&#45;&gt;[root] aws_eip.nextcloud01_eip (expand) -->
<g id="edge50" class="edge">
<title>[root] output.nextcloud01_eip&#45;&gt;[root] aws_eip.nextcloud01_eip (expand)</title>
<path fill="none" stroke="black" d="M1834.94,-431.88C1848.29,-422.89 1864.82,-411.76 1879.28,-402.03"/>
<polygon fill="black" stroke="black" points="1881.62,-404.68 1887.96,-396.19 1877.71,-398.87 1881.62,-404.68"/>
</g>
<!-- [root] var.aws_access_key -->
<g id="node25" class="node">
<title>[root] var.aws_access_key</title>
<polygon fill="none" stroke="black" points="1016,-36 867,-36 867,0 1022,0 1022,-30 1016,-36"/>
<polyline fill="none" stroke="black" points="1016,-36 1016,-30 "/>
<polyline fill="none" stroke="black" points="1022,-30 1016,-30 "/>
<text text-anchor="middle" x="944.5" y="-14.3" font-family="Times,serif" font-size="14.00">var.aws_access_key</text>
</g>
<!-- [root] provider[&quot;registry.terraform.io/hashicorp/aws&quot;]&#45;&gt;[root] var.aws_access_key -->
<g id="edge58" class="edge">
<title>[root] provider[&quot;registry.terraform.io/hashicorp/aws&quot;]&#45;&gt;[root] var.aws_access_key</title>
<path fill="none" stroke="black" d="M1067.43,-73.81C1045.38,-63.98 1016.35,-51.03 992.04,-40.19"/>
<polygon fill="black" stroke="black" points="993.19,-36.88 982.63,-36 990.34,-43.27 993.19,-36.88"/>
</g>
<!-- [root] var.aws_region -->
<g id="node34" class="node">
<title>[root] var.aws_region</title>
<polygon fill="none" stroke="black" points="1157,-36 1040,-36 1040,0 1163,0 1163,-30 1157,-36"/>
<polyline fill="none" stroke="black" points="1157,-36 1157,-30 "/>
<polyline fill="none" stroke="black" points="1163,-30 1157,-30 "/>
<text text-anchor="middle" x="1101.5" y="-14.3" font-family="Times,serif" font-size="14.00">var.aws_region</text>
</g>
<!-- [root] provider[&quot;registry.terraform.io/hashicorp/aws&quot;]&#45;&gt;[root] var.aws_region -->
<g id="edge59" class="edge">
<title>[root] provider[&quot;registry.terraform.io/hashicorp/aws&quot;]&#45;&gt;[root] var.aws_region</title>
<path fill="none" stroke="black" d="M1101.5,-71.7C1101.5,-63.98 1101.5,-54.71 1101.5,-46.11"/>
<polygon fill="black" stroke="black" points="1105,-46.1 1101.5,-36.1 1098,-46.1 1105,-46.1"/>
</g>
<!-- [root] var.aws_secret_key -->
<g id="node35" class="node">
<title>[root] var.aws_secret_key</title>
<polygon fill="none" stroke="black" points="1328,-36 1181,-36 1181,0 1334,0 1334,-30 1328,-36"/>
<polyline fill="none" stroke="black" points="1328,-36 1328,-30 "/>
<polyline fill="none" stroke="black" points="1334,-30 1328,-30 "/>
<text text-anchor="middle" x="1257.5" y="-14.3" font-family="Times,serif" font-size="14.00">var.aws_secret_key</text>
</g>
<!-- [root] provider[&quot;registry.terraform.io/hashicorp/aws&quot;]&#45;&gt;[root] var.aws_secret_key -->
<g id="edge60" class="edge">
<title>[root] provider[&quot;registry.terraform.io/hashicorp/aws&quot;]&#45;&gt;[root] var.aws_secret_key</title>
<path fill="none" stroke="black" d="M1135.35,-73.81C1157.26,-63.98 1186.11,-51.03 1210.27,-40.19"/>
<polygon fill="black" stroke="black" points="1211.92,-43.29 1219.61,-36 1209.05,-36.9 1211.92,-43.29"/>
</g>
<!-- [root] var.aws_ssh_private_key -->
<g id="node36" class="node">
<title>[root] var.aws_ssh_private_key</title>
<polygon fill="none" stroke="black" points="912,-468 727,-468 727,-432 918,-432 918,-462 912,-468"/>
<polyline fill="none" stroke="black" points="912,-468 912,-462 "/>
<polyline fill="none" stroke="black" points="918,-462 912,-462 "/>
<text text-anchor="middle" x="822.5" y="-446.3" font-family="Times,serif" font-size="14.00">var.aws_ssh_private_key</text>
</g>
<!-- [root] meta.count&#45;boundary (EachMode fixup) -->
<g id="node39" class="node">
<title>[root] meta.count&#45;boundary (EachMode fixup)</title>
<ellipse fill="none" stroke="black" cx="884.5" cy="-522" rx="222.86" ry="18"/>
<text text-anchor="middle" x="884.5" y="-518.3" font-family="Times,serif" font-size="14.00">[root] meta.count&#45;boundary (EachMode fixup)</text>
</g>
<!-- [root] meta.count&#45;boundary (EachMode fixup)&#45;&gt;[root] aws_iam_user_policy_attachment.kms_policy_attach (expand) -->
<g id="edge39" class="edge">
<title>[root] meta.count&#45;boundary (EachMode fixup)&#45;&gt;[root] aws_iam_user_policy_attachment.kms_policy_attach (expand)</title>
<path fill="none" stroke="black" d="M796.6,-505.44C743.58,-492 691.14,-468.81 718.5,-432 728.68,-418.3 742.3,-408.01 757.46,-400.3"/>
<polygon fill="black" stroke="black" points="758.98,-403.46 766.56,-396.06 756.02,-397.12 758.98,-403.46"/>
</g>
<!-- [root] meta.count&#45;boundary (EachMode fixup)&#45;&gt;[root] aws_iam_user_policy_attachment.s3_policy_attach (expand) -->
<g id="edge40" class="edge">
<title>[root] meta.count&#45;boundary (EachMode fixup)&#45;&gt;[root] aws_iam_user_policy_attachment.s3_policy_attach (expand)</title>
<path fill="none" stroke="black" d="M822.95,-504.64C788.39,-494.96 744.67,-481.9 706.5,-468 668.72,-454.24 660.52,-447.69 623.5,-432 598.2,-421.28 569.98,-409.57 546.5,-399.89"/>
<polygon fill="black" stroke="black" points="547.66,-396.58 537.08,-396.01 544.99,-403.05 547.66,-396.58"/>
</g>
<!-- [root] meta.count&#45;boundary (EachMode fixup)&#45;&gt;[root] aws_route_table_association.aws_net_routes (expand) -->
<g id="edge41" class="edge">
<title>[root] meta.count&#45;boundary (EachMode fixup)&#45;&gt;[root] aws_route_table_association.aws_net_routes (expand)</title>
<path fill="none" stroke="black" d="M1091.61,-515.3C1345.02,-507.45 1759.16,-491.56 1911.5,-468 2010.91,-452.63 2123.29,-420.29 2190.97,-399.12"/>
<polygon fill="black" stroke="black" points="2192.13,-402.42 2200.62,-396.08 2190.03,-395.74 2192.13,-402.42"/>
</g>
<!-- [root] meta.count&#45;boundary (EachMode fixup)&#45;&gt;[root] aws_s3_account_public_access_block.public_access_block (expand) -->
<g id="edge42" class="edge">
<title>[root] meta.count&#45;boundary (EachMode fixup)&#45;&gt;[root] aws_s3_account_public_access_block.public_access_block (expand)</title>
<path fill="none" stroke="black" d="M1099.31,-517.05C1286.21,-511.57 1532.57,-498.57 1567.5,-468 1584.73,-452.92 1588.54,-426.38 1588.6,-406.2"/>
<polygon fill="black" stroke="black" points="1592.1,-405.94 1588.33,-396.03 1585.1,-406.13 1592.1,-405.94"/>
</g>
<!-- [root] meta.count&#45;boundary (EachMode fixup)&#45;&gt;[root] aws_s3_bucket.nextcloud_bucket (expand) -->
<g id="edge43" class="edge">
<title>[root] meta.count&#45;boundary (EachMode fixup)&#45;&gt;[root] aws_s3_bucket.nextcloud_bucket (expand)</title>
<path fill="none" stroke="black" d="M897.97,-503.8C916.48,-480.6 949.31,-441.15 965.5,-432 988.8,-418.83 1043.85,-406.9 1097.87,-397.72"/>
<polygon fill="black" stroke="black" points="1098.65,-401.13 1107.94,-396.03 1097.5,-394.23 1098.65,-401.13"/>
</g>
<!-- [root] meta.count&#45;boundary (EachMode fixup)&#45;&gt;[root] output.nextcloud&#45;s3&#45;user_access_token -->
<g id="edge44" class="edge">
<title>[root] meta.count&#45;boundary (EachMode fixup)&#45;&gt;[root] output.nextcloud&#45;s3&#45;user_access_token</title>
<path fill="none" stroke="black" d="M792.51,-505.59C729.41,-495.03 645.3,-480.94 578.33,-469.73"/>
<polygon fill="black" stroke="black" points="578.6,-466.22 568.16,-468.02 577.44,-473.13 578.6,-466.22"/>
</g>
<!-- [root] meta.count&#45;boundary (EachMode fixup)&#45;&gt;[root] output.nextcloud&#45;s3&#45;user_secret -->
<g id="edge45" class="edge">
<title>[root] meta.count&#45;boundary (EachMode fixup)&#45;&gt;[root] output.nextcloud&#45;s3&#45;user_secret</title>
<path fill="none" stroke="black" d="M739.95,-508.26C623.85,-497.88 456.63,-482.61 310.5,-468 302.5,-467.2 294.27,-466.36 285.97,-465.5"/>
<polygon fill="black" stroke="black" points="286.13,-462 275.82,-464.45 285.41,-468.97 286.13,-462"/>
</g>
<!-- [root] meta.count&#45;boundary (EachMode fixup)&#45;&gt;[root] output.nextcloud01_eip -->
<g id="edge46" class="edge">
<title>[root] meta.count&#45;boundary (EachMode fixup)&#45;&gt;[root] output.nextcloud01_eip</title>
<path fill="none" stroke="black" d="M1044.84,-509.47C1189.96,-498.95 1409.59,-482.83 1600.5,-468 1635.04,-465.32 1672.78,-462.28 1706.56,-459.52"/>
<polygon fill="black" stroke="black" points="1707.23,-462.98 1716.91,-458.68 1706.66,-456 1707.23,-462.98"/>
</g>
<!-- [root] meta.count&#45;boundary (EachMode fixup)&#45;&gt;[root] var.aws_ssh_private_key -->
<g id="edge47" class="edge">
<title>[root] meta.count&#45;boundary (EachMode fixup)&#45;&gt;[root] var.aws_ssh_private_key</title>
<path fill="none" stroke="black" d="M869.17,-503.7C861.74,-495.3 852.68,-485.07 844.52,-475.86"/>
<polygon fill="black" stroke="black" points="846.9,-473.27 837.65,-468.1 841.66,-477.91 846.9,-473.27"/>
</g>
<!-- [root] provider[&quot;registry.terraform.io/hashicorp/aws&quot;] (close) -->
<g id="node40" class="node">
<title>[root] provider[&quot;registry.terraform.io/hashicorp/aws&quot;] (close)</title>
<ellipse fill="none" stroke="black" cx="1266.5" cy="-450" rx="291.65" ry="18"/>
<text text-anchor="middle" x="1266.5" y="-446.3" font-family="Times,serif" font-size="14.00">[root] provider[&quot;registry.terraform.io/hashicorp/aws&quot;] (close)</text>
</g>
<!-- [root] provider[&quot;registry.terraform.io/hashicorp/aws&quot;] (close)&#45;&gt;[root] aws_eip.nextcloud01_eip (expand) -->
<g id="edge51" class="edge">
<title>[root] provider[&quot;registry.terraform.io/hashicorp/aws&quot;] (close)&#45;&gt;[root] aws_eip.nextcloud01_eip (expand)</title>
<path fill="none" stroke="black" d="M1434.04,-435.26C1538.34,-426.06 1675.5,-412.8 1806.28,-396.11"/>
<polygon fill="black" stroke="black" points="1807.02,-399.55 1816.49,-394.8 1806.12,-392.61 1807.02,-399.55"/>
</g>
<!-- [root] provider[&quot;registry.terraform.io/hashicorp/aws&quot;] (close)&#45;&gt;[root] aws_iam_access_key.nextcloud&#45;s3&#45;user (expand) -->
<g id="edge52" class="edge">
<title>[root] provider[&quot;registry.terraform.io/hashicorp/aws&quot;] (close)&#45;&gt;[root] aws_iam_access_key.nextcloud&#45;s3&#45;user (expand)</title>
<path fill="none" stroke="black" d="M1051.17,-437.83C798.48,-424.63 401.98,-403.58 301.42,-396.09"/>
<polygon fill="black" stroke="black" points="301.63,-392.6 291.39,-395.31 301.08,-399.58 301.63,-392.6"/>
</g>
<!-- [root] provider[&quot;registry.terraform.io/hashicorp/aws&quot;] (close)&#45;&gt;[root] aws_iam_user_policy_attachment.kms_policy_attach (expand) -->
<g id="edge53" class="edge">
<title>[root] provider[&quot;registry.terraform.io/hashicorp/aws&quot;] (close)&#45;&gt;[root] aws_iam_user_policy_attachment.kms_policy_attach (expand)</title>
<path fill="none" stroke="black" d="M1180.22,-432.76C1124.83,-422.34 1052.69,-408.77 994.75,-397.86"/>
<polygon fill="black" stroke="black" points="995.32,-394.41 984.85,-396 994.03,-401.29 995.32,-394.41"/>
</g>
<!-- [root] provider[&quot;registry.terraform.io/hashicorp/aws&quot;] (close)&#45;&gt;[root] aws_iam_user_policy_attachment.s3_policy_attach (expand) -->
<g id="edge54" class="edge">
<title>[root] provider[&quot;registry.terraform.io/hashicorp/aws&quot;] (close)&#45;&gt;[root] aws_iam_user_policy_attachment.s3_policy_attach (expand)</title>
<path fill="none" stroke="black" d="M1110.01,-434.79C989.58,-423.86 822.36,-408.68 692.76,-396.91"/>
<polygon fill="black" stroke="black" points="692.99,-393.42 682.71,-396 692.35,-400.39 692.99,-393.42"/>
</g>
<!-- [root] provider[&quot;registry.terraform.io/hashicorp/aws&quot;] (close)&#45;&gt;[root] aws_route_table_association.aws_net_routes (expand) -->
<g id="edge55" class="edge">
<title>[root] provider[&quot;registry.terraform.io/hashicorp/aws&quot;] (close)&#45;&gt;[root] aws_route_table_association.aws_net_routes (expand)</title>
<path fill="none" stroke="black" d="M1451.79,-436.09C1604.22,-425.44 1825.88,-409.88 2019.5,-396 2037.67,-394.7 2056.65,-393.33 2075.58,-391.96"/>
<polygon fill="black" stroke="black" points="2076.05,-395.43 2085.77,-391.22 2075.54,-388.45 2076.05,-395.43"/>
</g>
<!-- [root] provider[&quot;registry.terraform.io/hashicorp/aws&quot;] (close)&#45;&gt;[root] aws_s3_account_public_access_block.public_access_block (expand) -->
<g id="edge56" class="edge">
<title>[root] provider[&quot;registry.terraform.io/hashicorp/aws&quot;] (close)&#45;&gt;[root] aws_s3_account_public_access_block.public_access_block (expand)</title>
<path fill="none" stroke="black" d="M1341.53,-432.59C1388.53,-422.31 1449.33,-409.01 1498.59,-398.23"/>
<polygon fill="black" stroke="black" points="1499.58,-401.6 1508.6,-396.04 1498.09,-394.76 1499.58,-401.6"/>
</g>
<!-- [root] provider[&quot;registry.terraform.io/hashicorp/aws&quot;] (close)&#45;&gt;[root] aws_s3_bucket.nextcloud_bucket (expand) -->
<g id="edge57" class="edge">
<title>[root] provider[&quot;registry.terraform.io/hashicorp/aws&quot;] (close)&#45;&gt;[root] aws_s3_bucket.nextcloud_bucket (expand)</title>
<path fill="none" stroke="black" d="M1257.85,-431.7C1253.86,-423.73 1249.05,-414.1 1244.63,-405.26"/>
<polygon fill="black" stroke="black" points="1247.65,-403.48 1240.05,-396.1 1241.39,-406.61 1247.65,-403.48"/>
</g>
<!-- [root] root -->
<g id="node41" class="node">
<title>[root] root</title>
<ellipse fill="none" stroke="black" cx="1009.5" cy="-594" rx="58.49" ry="18"/>
<text text-anchor="middle" x="1009.5" y="-590.3" font-family="Times,serif" font-size="14.00">[root] root</text>
</g>
<!-- [root] root&#45;&gt;[root] meta.count&#45;boundary (EachMode fixup) -->
<g id="edge61" class="edge">
<title>[root] root&#45;&gt;[root] meta.count&#45;boundary (EachMode fixup)</title>
<path fill="none" stroke="black" d="M982.68,-577.98C965.47,-568.34 942.82,-555.66 923.61,-544.9"/>
<polygon fill="black" stroke="black" points="925.22,-541.79 914.78,-539.96 921.8,-547.9 925.22,-541.79"/>
</g>
<!-- [root] root&#45;&gt;[root] provider[&quot;registry.terraform.io/hashicorp/aws&quot;] (close) -->
<g id="edge62" class="edge">
<title>[root] root&#45;&gt;[root] provider[&quot;registry.terraform.io/hashicorp/aws&quot;] (close)</title>
<path fill="none" stroke="black" d="M1040.25,-578.53C1061.81,-568.2 1091.18,-553.76 1116.5,-540 1156.04,-518.51 1200.23,-491.98 1230.34,-473.5"/>
<polygon fill="black" stroke="black" points="1232.53,-476.26 1239.21,-468.04 1228.86,-470.3 1232.53,-476.26"/>
</g>
</g>
</svg>
